<svg xmlns="http://www.w3.org/2000/svg" fill="none" aria-label="Moonshot" class="ds-nav-main-nav-chain-icon" viewBox="0 0 70 70">
  <path fill="#dfff16" d="M69.837 47.93c.794-1.89-1.474-3.5-3.375-2.66a29.881 29.881 0 0 1-12.06 2.52c-16.275 0-29.466-12.926-29.466-28.874a28.311 28.311 0 0 1 4.41-15.206c1.104-1.742-.222-4.153-2.244-3.64C11.512 4.05 0 17.94 0 34.464 0 54.09 16.236 70 36.268 70c15.167 0 28.156-9.12 33.57-22.07Z"/>
  <path fill="#dfff16" d="M62.653 8.117c.764-2.255-2.127-3.924-3.698-2.138l-2.8 3.187a8.712 8.712 0 0 1-9.337 2.502l-4.019-1.36c-2.253-.76-3.921 2.134-2.132 3.704l3.186 2.796a8.709 8.709 0 0 1 2.501 9.337l-1.36 4.018c-.764 2.254 2.127 3.923 3.697 2.134l2.8-3.187a8.711 8.711 0 0 1 9.338-2.502l4.018 1.36c2.255.764 3.924-2.127 2.133-3.7l-3.185-2.797a8.71 8.71 0 0 1-2.502-9.336l1.36-4.018Z"/>
</svg>